<svg xmlns="http://www.w3.org/2000/svg" xmlns:xlink="http://www.w3.org/1999/xlink" width="869" zoomAndPan="magnify" viewBox="0 0 651.75 254.999984" height="340" preserveAspectRatio="xMidYMid meet" version="1.0"><defs><g/><clipPath id="7140756bd4"><path d="M 119.644531 69.359375 L 147.972656 69.359375 L 147.972656 97.6875 L 119.644531 97.6875 Z M 119.644531 69.359375 " clip-rule="nonzero"/></clipPath><clipPath id="db8d3fb20d"><path d="M 133.808594 69.359375 C 125.984375 69.359375 119.644531 75.703125 119.644531 83.523438 C 119.644531 91.347656 125.984375 97.6875 133.808594 97.6875 C 141.628906 97.6875 147.972656 91.347656 147.972656 83.523438 C 147.972656 75.703125 141.628906 69.359375 133.808594 69.359375 Z M 133.808594 69.359375 " clip-rule="nonzero"/></clipPath><clipPath id="ef9b3b75b7"><path d="M 70.597656 38.992188 L 131.527344 38.992188 L 131.527344 99.917969 L 70.597656 99.917969 Z M 70.597656 38.992188 " clip-rule="nonzero"/></clipPath><clipPath id="8678b4c9f9"><path d="M 101.0625 38.992188 C 84.238281 38.992188 70.597656 52.628906 70.597656 69.453125 C 70.597656 86.277344 84.238281 99.917969 101.0625 99.917969 C 117.886719 99.917969 131.527344 86.277344 131.527344 69.453125 C 131.527344 52.628906 117.886719 38.992188 101.0625 38.992188 Z M 101.0625 38.992188 " clip-rule="nonzero"/></clipPath></defs><g clip-path="url(#7140756bd4)"><g clip-path="url(#db8d3fb20d)"><path fill="#ffffff" d="M 119.644531 69.359375 L 147.972656 69.359375 L 147.972656 97.6875 L 119.644531 97.6875 Z M 119.644531 69.359375 " fill-opacity="1" fill-rule="nonzero"/></g></g><g fill="#0006b1" fill-opacity="1"><g transform="translate(33.492266, 175.647384)"><g><path d="M 11.328125 -155.6875 L 67 -155.6875 C 81.96875 -155.6875 94.171875 -151.691406 103.609375 -143.703125 C 113.046875 -135.710938 117.765625 -124.296875 117.765625 -109.453125 C 117.765625 -98.003906 114.898438 -88.410156 109.171875 -80.671875 C 103.453125 -72.941406 95.679688 -67.503906 85.859375 -64.359375 L 139.46875 0 L 94.359375 0 L 46.796875 -61.515625 L 46.796875 0 L 11.328125 0 Z M 46.796875 -86.625 L 50.953125 -86.625 C 54.222656 -86.625 56.988281 -86.6875 59.25 -86.8125 C 61.519531 -86.9375 64.097656 -87.375 66.984375 -88.125 C 69.878906 -88.882812 72.207031 -89.957031 73.96875 -91.34375 C 75.738281 -92.726562 77.25 -94.738281 78.5 -97.375 C 79.757812 -100.019531 80.390625 -103.226562 80.390625 -107 C 80.390625 -110.78125 79.757812 -113.988281 78.5 -116.625 C 77.25 -119.269531 75.738281 -121.285156 73.96875 -122.671875 C 72.207031 -124.054688 69.878906 -125.125 66.984375 -125.875 C 64.097656 -126.625 61.519531 -127.0625 59.25 -127.1875 C 56.988281 -127.320312 54.222656 -127.390625 50.953125 -127.390625 L 46.796875 -127.390625 Z M 46.796875 -86.625 "/></g></g></g><g clip-path="url(#ef9b3b75b7)"><g clip-path="url(#8678b4c9f9)"><path fill="#ffffff" d="M 70.597656 38.992188 L 131.527344 38.992188 L 131.527344 99.917969 L 70.597656 99.917969 Z M 70.597656 38.992188 " fill-opacity="1" fill-rule="nonzero"/></g></g><g fill="#0006b1" fill-opacity="1"><g transform="translate(171.114172, 176.901725)"><g><path d="M 55.328125 -65.78125 L 55.328125 -23.359375 C 55.328125 -15.285156 53.148438 -9.171875 48.796875 -5.015625 C 44.441406 -0.867188 38.0625 1.203125 29.65625 1.203125 C 21.257812 1.203125 14.878906 -0.867188 10.515625 -5.015625 C 6.160156 -9.171875 3.984375 -15.285156 3.984375 -23.359375 L 3.984375 -65.78125 L 18.984375 -65.78125 L 18.984375 -27.75 C 18.984375 -22.4375 19.816406 -18.742188 21.484375 -16.671875 C 23.160156 -14.597656 25.882812 -13.5625 29.65625 -13.5625 C 33.4375 -13.5625 36.160156 -14.597656 37.828125 -16.671875 C 39.503906 -18.742188 40.34375 -22.4375 40.34375 -27.75 L 40.34375 -65.78125 Z M 55.328125 -65.78125 "/></g></g></g><g fill="#0006b1" fill-opacity="1"><g transform="translate(230.43926, 176.901725)"><g><path d="M 19.78125 -40.828125 L 19.78125 0 L 4.78125 0 L 4.78125 -65.78125 L 19.78125 -65.78125 L 45.921875 -24.953125 L 46.09375 -24.953125 L 46.09375 -65.78125 L 61.078125 -65.78125 L 61.078125 0 L 46.09375 0 L 19.9375 -40.828125 Z M 19.78125 -40.828125 "/></g></g></g><g fill="#0006b1" fill-opacity="1"><g transform="translate(296.302871, 176.901725)"><g><path d="M 4.78125 -65.78125 L 23.84375 -65.78125 C 32.988281 -65.78125 40.800781 -62.65625 47.28125 -56.40625 C 53.769531 -50.164062 57.015625 -42.34375 57.015625 -32.9375 C 57.015625 -23.46875 53.785156 -15.609375 47.328125 -9.359375 C 40.867188 -3.117188 33.039062 0 23.84375 0 L 4.78125 0 Z M 19.78125 -13.390625 L 22.09375 -13.390625 C 27.5625 -13.390625 32.035156 -15.238281 35.515625 -18.9375 C 39.003906 -22.632812 40.773438 -27.269531 40.828125 -32.84375 C 40.828125 -38.425781 39.082031 -43.078125 35.59375 -46.796875 C 32.113281 -50.523438 27.613281 -52.390625 22.09375 -52.390625 L 19.78125 -52.390625 Z M 19.78125 -13.390625 "/></g></g></g><g fill="#0006b1" fill-opacity="1"><g transform="translate(355.149533, 176.901725)"><g><path d="M 64.265625 -36.84375 L 64.265625 -22.5625 C 62.566406 -14.75 58.84375 -8.832031 53.09375 -4.8125 C 47.351562 -0.800781 40.953125 1.203125 33.890625 1.203125 C 25.015625 1.203125 17.453125 -2.117188 11.203125 -8.765625 C 4.953125 -15.410156 1.828125 -23.4375 1.828125 -32.84375 C 1.828125 -42.414062 4.882812 -50.5 11 -57.09375 C 17.113281 -63.6875 24.742188 -66.984375 33.890625 -66.984375 C 44.566406 -66.984375 53.019531 -63.234375 59.25 -55.734375 L 49.4375 -44.96875 C 45.925781 -50.601562 41.035156 -53.421875 34.765625 -53.421875 C 30.140625 -53.421875 26.191406 -51.410156 22.921875 -47.390625 C 19.648438 -43.378906 18.015625 -38.53125 18.015625 -32.84375 C 18.015625 -27.269531 19.648438 -22.5 22.921875 -18.53125 C 26.191406 -14.570312 30.140625 -12.59375 34.765625 -12.59375 C 38.585938 -12.59375 41.921875 -13.75 44.765625 -16.0625 C 47.609375 -18.375 49.03125 -21.445312 49.03125 -25.28125 L 33.890625 -25.28125 L 33.890625 -36.84375 Z M 64.265625 -36.84375 "/></g></g></g><g fill="#0006b1" fill-opacity="1"><g transform="translate(421.252357, 176.901725)"><g><path d="M 38.1875 -65.78125 L 64.75 0 L 48.640625 0 L 43.78125 -13.15625 L 18.734375 -13.15625 L 13.875 0 L -2.234375 0 L 24.3125 -65.78125 Z M 38.671875 -26.3125 L 31.328125 -45.453125 L 31.171875 -45.453125 L 23.84375 -26.3125 Z M 38.671875 -26.3125 "/></g></g></g><g fill="#0006b1" fill-opacity="1"><g transform="translate(483.766986, 176.901725)"><g><path d="M 19.78125 -40.828125 L 19.78125 0 L 4.78125 0 L 4.78125 -65.78125 L 19.78125 -65.78125 L 45.921875 -24.953125 L 46.09375 -24.953125 L 46.09375 -65.78125 L 61.078125 -65.78125 L 61.078125 0 L 46.09375 0 L 19.9375 -40.828125 Z M 19.78125 -40.828125 "/></g></g></g><g fill="#0006b1" fill-opacity="1"><g transform="translate(549.630575, 176.901725)"><g><path d="M 64.265625 -36.84375 L 64.265625 -22.5625 C 62.566406 -14.75 58.84375 -8.832031 53.09375 -4.8125 C 47.351562 -0.800781 40.953125 1.203125 33.890625 1.203125 C 25.015625 1.203125 17.453125 -2.117188 11.203125 -8.765625 C 4.953125 -15.410156 1.828125 -23.4375 1.828125 -32.84375 C 1.828125 -42.414062 4.882812 -50.5 11 -57.09375 C 17.113281 -63.6875 24.742188 -66.984375 33.890625 -66.984375 C 44.566406 -66.984375 53.019531 -63.234375 59.25 -55.734375 L 49.4375 -44.96875 C 45.925781 -50.601562 41.035156 -53.421875 34.765625 -53.421875 C 30.140625 -53.421875 26.191406 -51.410156 22.921875 -47.390625 C 19.648438 -43.378906 18.015625 -38.53125 18.015625 -32.84375 C 18.015625 -27.269531 19.648438 -22.5 22.921875 -18.53125 C 26.191406 -14.570312 30.140625 -12.59375 34.765625 -12.59375 C 38.585938 -12.59375 41.921875 -13.75 44.765625 -16.0625 C 47.609375 -18.375 49.03125 -21.445312 49.03125 -25.28125 L 33.890625 -25.28125 L 33.890625 -36.84375 Z M 64.265625 -36.84375 "/></g></g></g><g fill="#000000" fill-opacity="1"><g transform="translate(83.043794, 233.045428)"><g><path d="M 18.828125 -29.203125 L 18.828125 -23.359375 L 8.78125 -23.359375 L 8.78125 -17.546875 L 18.40625 -17.546875 L 18.40625 -11.71875 L 8.78125 -11.71875 L 8.78125 -5.84375 L 18.828125 -5.84375 L 18.828125 0 L 2.125 0 L 2.125 -29.203125 Z M 18.828125 -29.203125 "/></g></g></g><g fill="#000000" fill-opacity="1"><g transform="translate(103.568448, 233.045428)"><g><path d="M 2.125 0 L 2.125 -18.15625 L 8.390625 -18.15625 L 8.390625 -16.25 L 8.453125 -16.25 C 10.085938 -17.875 11.820312 -18.6875 13.65625 -18.6875 C 14.976562 -18.6875 16.21875 -18.414062 17.375 -17.875 C 18.53125 -17.332031 19.40625 -16.492188 20 -15.359375 C 21.832031 -17.578125 23.835938 -18.6875 26.015625 -18.6875 C 27.953125 -18.6875 29.613281 -18.144531 31 -17.0625 C 32.394531 -15.976562 33.09375 -14.28125 33.09375 -11.96875 L 33.09375 0 L 26.828125 0 L 26.828125 -10.265625 C 26.828125 -11.234375 26.5625 -12.039062 26.03125 -12.6875 C 25.5 -13.332031 24.703125 -13.65625 23.640625 -13.65625 C 22.722656 -13.65625 22.019531 -13.378906 21.53125 -12.828125 C 21.050781 -12.273438 20.785156 -11.609375 20.734375 -10.828125 L 20.734375 0 L 14.46875 0 L 14.46875 -10.265625 C 14.46875 -11.234375 14.203125 -12.039062 13.671875 -12.6875 C 13.140625 -13.332031 12.347656 -13.65625 11.296875 -13.65625 C 10.328125 -13.65625 9.597656 -13.351562 9.109375 -12.75 C 8.628906 -12.15625 8.390625 -11.441406 8.390625 -10.609375 L 8.390625 0 Z M 2.125 0 "/></g></g></g><g fill="#000000" fill-opacity="1"><g transform="translate(138.424973, 233.045428)"><g><path d="M 20.8125 -15.90625 C 22.507812 -14.050781 23.359375 -11.78125 23.359375 -9.09375 C 23.359375 -6.40625 22.507812 -4.128906 20.8125 -2.265625 C 19.113281 -0.398438 16.953125 0.53125 14.328125 0.53125 C 11.921875 0.53125 9.941406 -0.222656 8.390625 -1.734375 L 8.390625 9.203125 L 2.125 9.203125 L 2.125 -18.15625 L 8.3125 -18.15625 L 8.3125 -16.109375 L 8.390625 -16.109375 C 9.941406 -17.828125 11.921875 -18.6875 14.328125 -18.6875 C 16.953125 -18.6875 19.113281 -17.757812 20.8125 -15.90625 Z M 15.484375 -6.015625 C 16.296875 -6.816406 16.703125 -7.84375 16.703125 -9.09375 C 16.703125 -10.34375 16.3125 -11.363281 15.53125 -12.15625 C 14.757812 -12.945312 13.734375 -13.34375 12.453125 -13.34375 C 11.222656 -13.34375 10.210938 -12.941406 9.421875 -12.140625 C 8.640625 -11.335938 8.25 -10.320312 8.25 -9.09375 C 8.25 -7.84375 8.65625 -6.816406 9.46875 -6.015625 C 10.28125 -5.210938 11.273438 -4.8125 12.453125 -4.8125 C 13.660156 -4.8125 14.671875 -5.210938 15.484375 -6.015625 Z M 15.484375 -6.015625 "/></g></g></g><g fill="#000000" fill-opacity="1"><g transform="translate(162.594528, 233.045428)"><g><path d="M 3.828125 -2.15625 C 1.816406 -3.945312 0.8125 -6.242188 0.8125 -9.046875 C 0.8125 -11.859375 1.859375 -14.164062 3.953125 -15.96875 C 6.054688 -17.78125 8.65625 -18.6875 11.75 -18.6875 C 14.789062 -18.6875 17.351562 -17.773438 19.4375 -15.953125 C 21.53125 -14.140625 22.578125 -11.84375 22.578125 -9.0625 C 22.578125 -6.28125 21.554688 -3.984375 19.515625 -2.171875 C 17.472656 -0.367188 14.882812 0.53125 11.75 0.53125 C 8.488281 0.53125 5.847656 -0.363281 3.828125 -2.15625 Z M 8.6875 -12.140625 C 7.875 -11.335938 7.46875 -10.3125 7.46875 -9.0625 C 7.46875 -7.8125 7.851562 -6.789062 8.625 -6 C 9.40625 -5.207031 10.4375 -4.8125 11.71875 -4.8125 C 12.9375 -4.8125 13.941406 -5.210938 14.734375 -6.015625 C 15.523438 -6.816406 15.921875 -7.832031 15.921875 -9.0625 C 15.921875 -10.3125 15.515625 -11.335938 14.703125 -12.140625 C 13.890625 -12.941406 12.894531 -13.34375 11.71875 -13.34375 C 10.507812 -13.34375 9.5 -12.941406 8.6875 -12.140625 Z M 8.6875 -12.140625 "/></g></g></g><g fill="#000000" fill-opacity="1"><g transform="translate(185.985557, 233.045428)"><g><path d="M 13.265625 0 L 9.03125 0 L -0.703125 -18.15625 L 6.515625 -18.15625 L 10.9375 -8.359375 L 15.28125 -18.15625 L 19.609375 -18.15625 L 23.953125 -8.359375 L 28.390625 -18.15625 L 35.609375 -18.15625 L 25.875 0 L 21.625 0 L 17.453125 -9.375 Z M 13.265625 0 "/></g></g></g><g fill="#000000" fill-opacity="1"><g transform="translate(220.877477, 233.045428)"><g><path d="M 20.484375 -8.203125 L 7.328125 -8.203125 C 7.328125 -6.929688 7.738281 -5.988281 8.5625 -5.375 C 9.382812 -4.757812 10.28125 -4.453125 11.25 -4.453125 C 12.269531 -4.453125 13.070312 -4.585938 13.65625 -4.859375 C 14.25 -5.128906 14.921875 -5.664062 15.671875 -6.46875 L 20.203125 -4.21875 C 18.316406 -1.050781 15.179688 0.53125 10.796875 0.53125 C 8.054688 0.53125 5.707031 -0.40625 3.75 -2.28125 C 1.789062 -4.15625 0.8125 -6.414062 0.8125 -9.0625 C 0.8125 -11.707031 1.789062 -13.972656 3.75 -15.859375 C 5.707031 -17.742188 8.054688 -18.6875 10.796875 -18.6875 C 13.671875 -18.6875 16.007812 -17.851562 17.8125 -16.1875 C 19.625 -14.53125 20.53125 -12.15625 20.53125 -9.0625 C 20.53125 -8.632812 20.515625 -8.347656 20.484375 -8.203125 Z M 7.5 -11.671875 L 14.40625 -11.671875 C 14.257812 -12.617188 13.882812 -13.34375 13.28125 -13.84375 C 12.6875 -14.351562 11.914062 -14.609375 10.96875 -14.609375 C 9.925781 -14.609375 9.097656 -14.335938 8.484375 -13.796875 C 7.878906 -13.253906 7.550781 -12.546875 7.5 -11.671875 Z M 7.5 -11.671875 "/></g></g></g><g fill="#000000" fill-opacity="1"><g transform="translate(242.216042, 233.045428)"><g><path d="M 2.125 0 L 2.125 -18.15625 L 8.390625 -18.15625 L 8.390625 -15.53125 L 8.453125 -15.53125 C 8.503906 -15.625 8.582031 -15.742188 8.6875 -15.890625 C 8.789062 -16.035156 9.019531 -16.285156 9.375 -16.640625 C 9.726562 -16.992188 10.101562 -17.3125 10.5 -17.59375 C 10.90625 -17.875 11.425781 -18.125 12.0625 -18.34375 C 12.707031 -18.570312 13.359375 -18.6875 14.015625 -18.6875 C 14.703125 -18.6875 15.375 -18.59375 16.03125 -18.40625 C 16.6875 -18.21875 17.171875 -18.03125 17.484375 -17.84375 L 17.984375 -17.546875 L 15.359375 -12.25 C 14.578125 -12.90625 13.492188 -13.234375 12.109375 -13.234375 C 11.347656 -13.234375 10.695312 -13.066406 10.15625 -12.734375 C 9.613281 -12.410156 9.226562 -12.007812 9 -11.53125 C 8.78125 -11.0625 8.625 -10.660156 8.53125 -10.328125 C 8.4375 -10.003906 8.390625 -9.75 8.390625 -9.5625 L 8.390625 0 Z M 2.125 0 "/></g></g></g><g fill="#000000" fill-opacity="1"><g transform="translate(259.838939, 233.045428)"><g><path d="M 2.71875 -28.28125 C 3.457031 -29.007812 4.332031 -29.375 5.34375 -29.375 C 6.351562 -29.375 7.222656 -29.007812 7.953125 -28.28125 C 8.691406 -27.550781 9.0625 -26.675781 9.0625 -25.65625 C 9.0625 -24.644531 8.691406 -23.769531 7.953125 -23.03125 C 7.222656 -22.300781 6.351562 -21.9375 5.34375 -21.9375 C 4.332031 -21.9375 3.457031 -22.300781 2.71875 -23.03125 C 1.988281 -23.769531 1.625 -24.644531 1.625 -25.65625 C 1.625 -26.675781 1.988281 -27.550781 2.71875 -28.28125 Z M 2.125 -18.15625 L 2.125 0 L 8.390625 0 L 8.390625 -18.15625 Z M 2.125 -18.15625 "/></g></g></g><g fill="#000000" fill-opacity="1"><g transform="translate(270.52593, 233.045428)"><g><path d="M 2.125 0 L 2.125 -18.15625 L 8.390625 -18.15625 L 8.390625 -16.25 L 8.453125 -16.25 C 10.085938 -17.875 11.820312 -18.6875 13.65625 -18.6875 C 14.550781 -18.6875 15.441406 -18.566406 16.328125 -18.328125 C 17.210938 -18.097656 18.0625 -17.734375 18.875 -17.234375 C 19.695312 -16.734375 20.359375 -16.03125 20.859375 -15.125 C 21.367188 -14.21875 21.625 -13.164062 21.625 -11.96875 L 21.625 0 L 15.359375 0 L 15.359375 -10.265625 C 15.359375 -11.203125 15.054688 -12.023438 14.453125 -12.734375 C 13.847656 -13.441406 13.066406 -13.796875 12.109375 -13.796875 C 11.160156 -13.796875 10.300781 -13.429688 9.53125 -12.703125 C 8.769531 -11.972656 8.390625 -11.160156 8.390625 -10.265625 L 8.390625 0 Z M 2.125 0 "/></g></g></g><g fill="#000000" fill-opacity="1"><g transform="translate(293.91697, 233.045428)"><g><path d="M 1.3125 4.453125 L 6.4375 1.953125 C 7.382812 3.503906 9.023438 4.28125 11.359375 4.28125 C 12.441406 4.28125 13.445312 3.929688 14.375 3.234375 C 15.3125 2.535156 15.78125 1.46875 15.78125 0.03125 L 15.78125 -1.3125 C 14.675781 -0.0820312 12.695312 0.53125 9.84375 0.53125 C 7.21875 0.53125 5.054688 -0.394531 3.359375 -2.25 C 1.660156 -4.101562 0.8125 -6.375 0.8125 -9.0625 C 0.8125 -11.75 1.660156 -14.023438 3.359375 -15.890625 C 5.054688 -17.753906 7.21875 -18.6875 9.84375 -18.6875 C 12.175781 -18.6875 14.117188 -17.96875 15.671875 -16.53125 L 15.78125 -16.53125 L 15.78125 -18.15625 L 22.046875 -18.15625 L 22.046875 0.5 C 22.046875 3.445312 21.066406 5.722656 19.109375 7.328125 C 17.148438 8.929688 14.566406 9.734375 11.359375 9.734375 C 6.171875 9.734375 2.820312 7.972656 1.3125 4.453125 Z M 8.6875 -12.140625 C 7.875 -11.335938 7.46875 -10.3125 7.46875 -9.0625 C 7.46875 -7.8125 7.851562 -6.789062 8.625 -6 C 9.40625 -5.207031 10.4375 -4.8125 11.71875 -4.8125 C 12.9375 -4.8125 13.941406 -5.210938 14.734375 -6.015625 C 15.523438 -6.816406 15.921875 -7.832031 15.921875 -9.0625 C 15.921875 -10.3125 15.515625 -11.335938 14.703125 -12.140625 C 13.890625 -12.941406 12.894531 -13.34375 11.71875 -13.34375 C 10.507812 -13.34375 9.5 -12.941406 8.6875 -12.140625 Z M 8.6875 -12.140625 "/></g></g></g><g fill="#000000" fill-opacity="1"><g transform="translate(318.086525, 233.045428)"><g/></g></g><g fill="#000000" fill-opacity="1"><g transform="translate(327.747268, 233.045428)"><g><path d="M 8.78125 -29.203125 L 8.78125 0 L 2.125 0 L 2.125 -29.203125 Z M 8.78125 -29.203125 "/></g></g></g><g fill="#000000" fill-opacity="1"><g transform="translate(338.646574, 233.045428)"><g><path d="M 2.125 0 L 2.125 -18.15625 L 8.390625 -18.15625 L 8.390625 -16.25 L 8.453125 -16.25 C 10.085938 -17.875 11.820312 -18.6875 13.65625 -18.6875 C 14.550781 -18.6875 15.441406 -18.566406 16.328125 -18.328125 C 17.210938 -18.097656 18.0625 -17.734375 18.875 -17.234375 C 19.695312 -16.734375 20.359375 -16.03125 20.859375 -15.125 C 21.367188 -14.21875 21.625 -13.164062 21.625 -11.96875 L 21.625 0 L 15.359375 0 L 15.359375 -10.265625 C 15.359375 -11.203125 15.054688 -12.023438 14.453125 -12.734375 C 13.847656 -13.441406 13.066406 -13.796875 12.109375 -13.796875 C 11.160156 -13.796875 10.300781 -13.429688 9.53125 -12.703125 C 8.769531 -11.972656 8.390625 -11.160156 8.390625 -10.265625 L 8.390625 0 Z M 2.125 0 "/></g></g></g><g fill="#000000" fill-opacity="1"><g transform="translate(362.037614, 233.045428)"><g><path d="M 3.359375 -2.25 C 1.660156 -4.101562 0.8125 -6.375 0.8125 -9.0625 C 0.8125 -11.75 1.660156 -14.023438 3.359375 -15.890625 C 5.054688 -17.753906 7.21875 -18.6875 9.84375 -18.6875 C 12.25 -18.6875 14.226562 -17.929688 15.78125 -16.421875 L 15.78125 -30.4375 L 22.046875 -30.4375 L 22.046875 0 L 15.859375 0 L 15.859375 -2.046875 L 15.78125 -2.046875 C 14.226562 -0.328125 12.25 0.53125 9.84375 0.53125 C 7.21875 0.53125 5.054688 -0.394531 3.359375 -2.25 Z M 8.6875 -12.140625 C 7.875 -11.335938 7.46875 -10.3125 7.46875 -9.0625 C 7.46875 -7.8125 7.851562 -6.789062 8.625 -6 C 9.40625 -5.207031 10.4375 -4.8125 11.71875 -4.8125 C 12.9375 -4.8125 13.941406 -5.210938 14.734375 -6.015625 C 15.523438 -6.816406 15.921875 -7.832031 15.921875 -9.0625 C 15.921875 -10.3125 15.515625 -11.335938 14.703125 -12.140625 C 13.890625 -12.941406 12.894531 -13.34375 11.71875 -13.34375 C 10.507812 -13.34375 9.5 -12.941406 8.6875 -12.140625 Z M 8.6875 -12.140625 "/></g></g></g><g fill="#000000" fill-opacity="1"><g transform="translate(386.207169, 233.045428)"><g><path d="M 2.71875 -28.28125 C 3.457031 -29.007812 4.332031 -29.375 5.34375 -29.375 C 6.351562 -29.375 7.222656 -29.007812 7.953125 -28.28125 C 8.691406 -27.550781 9.0625 -26.675781 9.0625 -25.65625 C 9.0625 -24.644531 8.691406 -23.769531 7.953125 -23.03125 C 7.222656 -22.300781 6.351562 -21.9375 5.34375 -21.9375 C 4.332031 -21.9375 3.457031 -22.300781 2.71875 -23.03125 C 1.988281 -23.769531 1.625 -24.644531 1.625 -25.65625 C 1.625 -26.675781 1.988281 -27.550781 2.71875 -28.28125 Z M 2.125 -18.15625 L 2.125 0 L 8.390625 0 L 8.390625 -18.15625 Z M 2.125 -18.15625 "/></g></g></g><g fill="#000000" fill-opacity="1"><g transform="translate(396.89415, 233.045428)"><g><path d="M 6.71875 -18.15625 L 11.140625 -8.28125 L 15.578125 -18.15625 L 23 -18.15625 L 13.265625 0 L 9.03125 0 L -0.703125 -18.15625 Z M 6.71875 -18.15625 "/></g></g></g><g fill="#000000" fill-opacity="1"><g transform="translate(419.188162, 233.045428)"><g><path d="M 2.71875 -28.28125 C 3.457031 -29.007812 4.332031 -29.375 5.34375 -29.375 C 6.351562 -29.375 7.222656 -29.007812 7.953125 -28.28125 C 8.691406 -27.550781 9.0625 -26.675781 9.0625 -25.65625 C 9.0625 -24.644531 8.691406 -23.769531 7.953125 -23.03125 C 7.222656 -22.300781 6.351562 -21.9375 5.34375 -21.9375 C 4.332031 -21.9375 3.457031 -22.300781 2.71875 -23.03125 C 1.988281 -23.769531 1.625 -24.644531 1.625 -25.65625 C 1.625 -26.675781 1.988281 -27.550781 2.71875 -28.28125 Z M 2.125 -18.15625 L 2.125 0 L 8.390625 0 L 8.390625 -18.15625 Z M 2.125 -18.15625 "/></g></g></g><g fill="#000000" fill-opacity="1"><g transform="translate(429.875142, 233.045428)"><g><path d="M 3.359375 -2.25 C 1.660156 -4.101562 0.8125 -6.375 0.8125 -9.0625 C 0.8125 -11.75 1.660156 -14.023438 3.359375 -15.890625 C 5.054688 -17.753906 7.21875 -18.6875 9.84375 -18.6875 C 12.25 -18.6875 14.226562 -17.929688 15.78125 -16.421875 L 15.78125 -30.4375 L 22.046875 -30.4375 L 22.046875 0 L 15.859375 0 L 15.859375 -2.046875 L 15.78125 -2.046875 C 14.226562 -0.328125 12.25 0.53125 9.84375 0.53125 C 7.21875 0.53125 5.054688 -0.394531 3.359375 -2.25 Z M 8.6875 -12.140625 C 7.875 -11.335938 7.46875 -10.3125 7.46875 -9.0625 C 7.46875 -7.8125 7.851562 -6.789062 8.625 -6 C 9.40625 -5.207031 10.4375 -4.8125 11.71875 -4.8125 C 12.9375 -4.8125 13.941406 -5.210938 14.734375 -6.015625 C 15.523438 -6.816406 15.921875 -7.832031 15.921875 -9.0625 C 15.921875 -10.3125 15.515625 -11.335938 14.703125 -12.140625 C 13.890625 -12.941406 12.894531 -13.34375 11.71875 -13.34375 C 10.507812 -13.34375 9.5 -12.941406 8.6875 -12.140625 Z M 8.6875 -12.140625 "/></g></g></g><g fill="#000000" fill-opacity="1"><g transform="translate(454.044697, 233.045428)"><g><path d="M 8.03125 -18.15625 L 8.03125 -9.515625 C 8.03125 -7.722656 8.300781 -6.445312 8.84375 -5.6875 C 9.382812 -4.9375 10.300781 -4.5625 11.59375 -4.5625 C 12.894531 -4.5625 13.816406 -4.9375 14.359375 -5.6875 C 14.910156 -6.445312 15.1875 -7.722656 15.1875 -9.515625 L 15.1875 -18.15625 L 21.453125 -18.15625 L 21.453125 -8 C 21.453125 -4.976562 20.664062 -2.800781 19.09375 -1.46875 C 17.519531 -0.132812 15.019531 0.53125 11.59375 0.53125 C 8.175781 0.53125 5.679688 -0.132812 4.109375 -1.46875 C 2.546875 -2.800781 1.765625 -4.976562 1.765625 -8 L 1.765625 -18.15625 Z M 8.03125 -18.15625 "/></g></g></g><g fill="#000000" fill-opacity="1"><g transform="translate(477.258806, 233.045428)"><g><path d="M 3.359375 -2.25 C 1.660156 -4.101562 0.8125 -6.375 0.8125 -9.0625 C 0.8125 -11.75 1.660156 -14.023438 3.359375 -15.890625 C 5.054688 -17.753906 7.21875 -18.6875 9.84375 -18.6875 C 12.25 -18.6875 14.226562 -17.929688 15.78125 -16.421875 L 15.78125 -18.15625 L 22.046875 -18.15625 L 22.046875 0 L 15.859375 0 L 15.859375 -2.046875 L 15.78125 -2.046875 C 14.226562 -0.328125 12.25 0.53125 9.84375 0.53125 C 7.21875 0.53125 5.054688 -0.394531 3.359375 -2.25 Z M 8.6875 -12.140625 C 7.875 -11.335938 7.46875 -10.3125 7.46875 -9.0625 C 7.46875 -7.8125 7.851562 -6.789062 8.625 -6 C 9.40625 -5.207031 10.4375 -4.8125 11.71875 -4.8125 C 12.9375 -4.8125 13.941406 -5.210938 14.734375 -6.015625 C 15.523438 -6.816406 15.921875 -7.832031 15.921875 -9.0625 C 15.921875 -10.3125 15.515625 -11.335938 14.703125 -12.140625 C 13.890625 -12.941406 12.894531 -13.34375 11.71875 -13.34375 C 10.507812 -13.34375 9.5 -12.941406 8.6875 -12.140625 Z M 8.6875 -12.140625 "/></g></g></g><g fill="#000000" fill-opacity="1"><g transform="translate(501.428361, 233.045428)"><g><path d="M 2.125 0 L 2.125 -30.4375 L 8.390625 -30.4375 L 8.390625 0 Z M 2.125 0 "/></g></g></g><g fill="#000000" fill-opacity="1"><g transform="translate(511.93841, 233.045428)"><g><path d="M 2.71875 -28.28125 C 3.457031 -29.007812 4.332031 -29.375 5.34375 -29.375 C 6.351562 -29.375 7.222656 -29.007812 7.953125 -28.28125 C 8.691406 -27.550781 9.0625 -26.675781 9.0625 -25.65625 C 9.0625 -24.644531 8.691406 -23.769531 7.953125 -23.03125 C 7.222656 -22.300781 6.351562 -21.9375 5.34375 -21.9375 C 4.332031 -21.9375 3.457031 -22.300781 2.71875 -23.03125 C 1.988281 -23.769531 1.625 -24.644531 1.625 -25.65625 C 1.625 -26.675781 1.988281 -27.550781 2.71875 -28.28125 Z M 2.125 -18.15625 L 2.125 0 L 8.390625 0 L 8.390625 -18.15625 Z M 2.125 -18.15625 "/></g></g></g><g fill="#000000" fill-opacity="1"><g transform="translate(522.62539, 233.045428)"><g><path d="M 3.1875 -18.15625 L 3.1875 -24.921875 L 9.453125 -24.921875 L 9.453125 -18.15625 L 13.265625 -18.15625 L 13.265625 -13.375 L 9.453125 -13.375 L 9.453125 -7.609375 C 9.453125 -5.929688 9.921875 -5.09375 10.859375 -5.09375 C 11.097656 -5.09375 11.347656 -5.140625 11.609375 -5.234375 C 11.867188 -5.328125 12.066406 -5.421875 12.203125 -5.515625 L 12.421875 -5.65625 L 13.984375 -0.609375 C 12.640625 0.148438 11.101562 0.53125 9.375 0.53125 C 8.195312 0.53125 7.179688 0.328125 6.328125 -0.078125 C 5.484375 -0.492188 4.84375 -1.050781 4.40625 -1.75 C 3.96875 -2.445312 3.65625 -3.175781 3.46875 -3.9375 C 3.28125 -4.707031 3.1875 -5.53125 3.1875 -6.40625 L 3.1875 -13.375 L 0.5625 -13.375 L 0.5625 -18.15625 Z M 3.1875 -18.15625 "/></g></g></g><g fill="#000000" fill-opacity="1"><g transform="translate(536.603364, 233.045428)"><g><path d="M 15.890625 -18.15625 L 23.109375 -18.15625 L 8.84375 9.203125 L 1.625 9.203125 L 7.890625 -2.828125 L -0.703125 -18.15625 L 6.515625 -18.15625 L 11.578125 -8.84375 Z M 15.890625 -18.15625 "/></g></g></g><g fill="#000000" fill-opacity="1"><g transform="translate(559.008389, 233.045428)"><g/></g></g></svg>